# xmcd
#
# Track frame offsets:
# 150
# 16390
# 31118
# 42806
# 50835
# 64577
# 84716
# 94252
# 104995
# 131588
# 145752
# 156955
# 169031
# 178670
# 189464
# 199308
# 217156
# 234386
# 249335
# 258615
# 268393
# 279949
# 300625
# 315843
# 346155
#
# Disc length: 4849 seconds
#
#
# Revision: 0
# Processed by: cddbd v1.5.2PL0 Copyright (c) Steve Scherf et al.
# Submitted via: HACP 1.20
#
DISCID=7012ef19
DTITLE=John Mayall's Bluesbreakers with Eric Clapton - Bluesbreakers with Eric C
DTITLE=lapton
DYEAR=1900
DGENRE=
TTITLE0=All Your Love
TTITLE1=Hideaway
TTITLE2=Little Girl
TTITLE3=Another Man
TTITLE4=Double Crossing Time
TTITLE5=What'd I Say
TTITLE6=Key to Love
TTITLE7=Parchman Farm
TTITLE8=Have You Heard
TTITLE9=Ramblin' on My Mind
TTITLE10=Steppin' Out
TTITLE11=It Ain't Right
TTITLE12=Crawling up a Hill
TTITLE13=Crocodile Walk
TTITLE14=I'm Your Witchdoctor
TTITLE15=Telephone Blues
TTITLE16=Bernard Jenkins
TTITLE17=Lonely Years
TTITLE18=Cheatin' Woman
TTITLE19=I'm Your Witchdoctor
TTITLE20=On Top of the World
TTITLE21=They Call it Stormy Monday
TTITLE22=It Hurts to Be in Love
TTITLE23=Have You Ever Loved a Woman
TTITLE24=Hoochie Coochie Man
EXTD=
EXTT0=
EXTT1=
EXTT2=
EXTT3=
EXTT4=
EXTT5=
EXTT6=
EXTT7=
EXTT8=
EXTT9=
EXTT10=
EXTT11=
EXTT12=
EXTT13=
EXTT14=
EXTT15=
EXTT16=
EXTT17=
EXTT18=
EXTT19=
EXTT20=
EXTT21=
EXTT22=
EXTT23=
EXTT24=
PLAYORDER=
